<?xml version="1.0" encoding="UTF-8"?>
<svg id="Capa_2" data-name="Capa 2" xmlns="http://www.w3.org/2000/svg" xmlns:xlink="http://www.w3.org/1999/xlink" viewBox="0 0 2581.8 1156.58">
  <defs>
    <style>
      .cls-1 {
        fill: url(#Degradado_sin_nombre_150);
      }
    </style>
    <linearGradient id="Degradado_sin_nombre_150" data-name="Degradado sin nombre 150" x1="0" y1="578.29" x2="2581.8" y2="578.29" gradientUnits="userSpaceOnUse">
      <stop offset="0" stop-color="#00fe00"/>
      <stop offset="1" stop-color="#00bb83"/>
    </linearGradient>
  </defs>
  <g id="Capa_2-2" data-name="Capa 2">
    <g id="Capa_1-2" data-name="Capa 1-2">
      <path class="cls-1" d="M187.13,5.92c54.54,41.88,7.21,138.28,47.3,189.72,8.66,9.81,20.85,14.6,34.67,16.57,164.81,4.2,423.02,2.45,586.24,1.41,26.67.79,58.79-3.24,67.57-32.47,20.32-73-18.55-227.67,114.2-167.49,120.89,53.81,103.5,182.68,180.93,196.76,169.36,12.48,449.06-1.76,616.26,4.24,22.58-.35,44.86,9.84,50.94,32.79,14.58,100.79,2.16,210.85,6.08,313.08-6.4,106.68,22.88,118.59,122.31,114.64,65.63-.01,132.65,0,198.75,0,47.78.57,109.37,4.64,128.35-50.23,15.68-43.5,29.24-91.46,65.41-123.22,74.48-66.26,182.02-69.37,175.21,56.29,2.15,53.16-.48,121.3-66.54,125.84-46.73,9.9-110.11-10.57-147.2,24.02-34.54,54-9.59,230.11-16.8,306.94.03,109.32,10.42,146.43-118.22,138.97-102.46-6.78-224.31,16.86-323.33-11.73-31.22-21.91-25.55-67.1-26.8-101.06-.09-72.43-.02-157.07-.03-230.39-2.27-36.23,8.68-85.19-20.87-111.82-164.71-29.55-445.48-4.4-621.94-11.05-63.1-6.68-71.69,44.59-68.74,95.21-.49,90.41,1.51,202.71-.85,298.51-.83,16.13-3.22,33.41-11.92,46.37-14.2,22.36-44.85,25.47-69.97,25.86-80.46,1.62-169.7-.11-252.24.18-93.91,2.53-140.3,3-133.41-108.8-9.61-65.4,27.91-334.76-33.42-349.52-54.88-18.58-123.22-.89-180.15-12.8-35.98-6.41-58.22-32.55-73.25-63.32-58.74-110.03-119.19-249.02-180.71-356.22-41.71-63.21-128.83-32.9-191.58-49.35C-84.7,172.84,103.61-37.15,186.83,5.75l.3.17ZM1151.84,238.64c-15.29-12.2-36.73-11.77-59.62-12.49-18.94-.25-37.93-.3-56.93-.25-53.04.16-93.78-.8-119.71,51.49-53.84,102.43-133.09,251.71-184.82,354.31-5.16,12.66-7.48,23.31.05,31.27,7.56,8.18,25.42,10.22,38.17,10.4,11.67.34,23.87.28,35.54.31,95.98-.03,192.25.03,287.68,0,80.93,2.24,78.68-29.54,78.26-98.39.03-81.26,0-165.99,0-246.56-1.24-28.57,5.38-69.72-18.32-89.88l-.28-.23Z"/>
    </g>
  </g>
</svg>